HIERARCHY
ROOT joint_Root
{
  OFFSET 0 0 0
  CHANNELS 6 Xposition Yposition Zposition Zrotation Xrotation Yrotation
  JOINT Hips
  {
    OFFSET 0.847027 93.984 -452.225
    CHANNELS 6 Xposition Yposition Zposition Zrotation Xrotation Yrotation
    JOINT Spine
    {
      OFFSET 15.7357 0 0
      CHANNELS 6 Xposition Yposition Zposition Zrotation Xrotation Yrotation
      JOINT Chest
      {
        OFFSET 8.98455 -0.406207 0
        CHANNELS 6 Xposition Yposition Zposition Zrotation Xrotation Yrotation
        JOINT Neck
        {
          OFFSET 16.3773 0 0
          CHANNELS 6 Xposition Yposition Zposition Zrotation Xrotation Yrotation
          JOINT Head
          {
            OFFSET 6.45672 0 0
            CHANNELS 6 Xposition Yposition Zposition Zrotation Xrotation Yrotation
            End Site
            {
              OFFSET 0 0 0
            }
          }
        }
        JOINT Shoulder_L
        {
          OFFSET 12.9942 -0.242716 4.98039
          CHANNELS 6 Xposition Yposition Zposition Zrotation Xrotation Yrotation
          JOINT UpperArm_L
          {
            OFFSET 5.34809 0 0
            CHANNELS 6 Xposition Yposition Zposition Zrotation Xrotation Yrotation
            JOINT LowerArm_L
            {
              OFFSET 24.3286 1.87007e-05 0
              CHANNELS 6 Xposition Yposition Zposition Zrotation Xrotation Yrotation
              JOINT Hand_L
              {
                OFFSET 22.2916 0 0
                CHANNELS 6 Xposition Yposition Zposition Zrotation Xrotation Yrotation
                End Site
                {
                  OFFSET 0 0 0
                }
              }
            }
          }
        }
        JOINT Shoulder_R
        {
          OFFSET 12.9945 -0.242716 -4.98039
          CHANNELS 6 Xposition Yposition Zposition Zrotation Xrotation Yrotation
          JOINT UpperArm_R
          {
            OFFSET -5.34813 0 0
            CHANNELS 6 Xposition Yposition Zposition Zrotation Xrotation Yrotation
            JOINT LowerArm_R
            {
              OFFSET -24.3289 0.000322201 0
              CHANNELS 6 Xposition Yposition Zposition Zrotation Xrotation Yrotation
              JOINT Hand_R
              {
                OFFSET -22.2915 -0.000108084 0
                CHANNELS 6 Xposition Yposition Zposition Zrotation Xrotation Yrotation
                End Site
                {
                  OFFSET 0 0 0
                }
              }
            }
          }
        }
      }
    }
    JOINT UpperLeg_L
    {
      OFFSET -2.19248 -6.46944 0
      CHANNELS 6 Xposition Yposition Zposition Zrotation Xrotation Yrotation
      JOINT LowerLeg_L
      {
        OFFSET 39.0811 0 -1.23785e-05
        CHANNELS 6 Xposition Yposition Zposition Zrotation Xrotation Yrotation
        JOINT Foot_L
        {
          OFFSET 40.9854 0 -1.26872e-05
          CHANNELS 6 Xposition Yposition Zposition Zrotation Xrotation Yrotation
          JOINT Toes_L
          {
            OFFSET 11.7543 0 0
            CHANNELS 6 Xposition Yposition Zposition Zrotation Xrotation Yrotation
            End Site
            {
              OFFSET 0 0 0
            }
          }
        }
      }
    }
    JOINT UpperLeg_R
    {
      OFFSET -2.19251 6.46944 0
      CHANNELS 6 Xposition Yposition Zposition Zrotation Xrotation Yrotation
      JOINT LowerLeg_R
      {
        OFFSET -39.0811 -0.00228153 -0.0401928
        CHANNELS 6 Xposition Yposition Zposition Zrotation Xrotation Yrotation
        JOINT Foot_R
        {
          OFFSET -40.9854 0 0
          CHANNELS 6 Xposition Yposition Zposition Zrotation Xrotation Yrotation
          JOINT Toes_R
          {
            OFFSET -11.7543 0 0
            CHANNELS 6 Xposition Yposition Zposition Zrotation Xrotation Yrotation
            End Site
            {
              OFFSET 0 0 0
            }
          }
        }
      }
    }
  }
}
MOTION
Frames:	6
Frame Time:	0.0333333
0 0 0 0 0 -0 -0.379126 89.115 -71.2247 88.1979 5.32718 -5.4836 15.7357 5.1072e-06 -5.51765e-07 49.0474 84.8281 -47.0367 8.98455 -0.406207 -4.3199e-07 0.176286 -6.91099 4.03338 16.3773 -1.3905e-06 -6.99897e-07 6.63632 -4.64792 1.91123 6.45672 -1.25837e-06 -1.02172e-07 6.89626 -0.607423 1.83663 12.9942 -0.242716 4.98039 -90.6336 2.16905 -88.7132 5.34809 -7.22636e-06 -6.2814e-07 -50.5323 24.2503 -21.8758 24.3286 1.87007e-05 4.90208e-06 3.92998 -0.240668 -93.5014 22.2916 -9.88446e-07 4.63217e-06 10.2308 5.58301 -10.3759 12.9945 -0.242716 -4.98039 86.7305 11.0507 -88.4038 -5.34813 -1.25947e-06 -3.79883e-06 -50.7234 10.6697 17.9068 -24.3289 0.000322201 -8.65921e-06 10.1568 -0.890633 -94.9592 -22.2915 -0.000108084 -4.47941e-06 3.71685 5.63472 -13.6984 -2.19248 -6.46944 -1.22534e-07 -174.649 0.706837 -1.04461 39.0811 -6.73843e-06 -1.23785e-05 0.0085865 0.0215999 26.9779 40.9854 -6.48686e-06 -1.26872e-05 2.18383 4.33329 -76.1045 11.7543 -2.30145e-07 3.05095e-06 0.133811 -0.222354 -20.4774 -2.19251 6.46944 -1.45247e-06 -175.573 12.0555 144.909 -39.0811 -0.00228153 -0.0401928 0.0284692 -0.0558945 22.1625 -40.9854 7.72618e-06 5.99936e-06 -0.10722 -2.85455 -55.4133 -11.7543 -5.6619e-06 -5.58687e-06 0.0923916 -0.104583 -17.6002 
0 0 0 0 0 -0 -1.23154 88.2851 -66.875 87.7707 5.79565 -6.66803 15.7357 5.1072e-06 -5.51765e-07 47.0666 85.6561 -44.5885 8.98455 -0.406207 -4.3199e-07 -1.26928 -6.11173 4.89047 16.3773 -1.3905e-06 -6.99897e-07 6.72851 -4.27999 1.89028 6.45672 -1.25837e-06 -1.02172e-07 6.78197 -0.547685 1.46247 12.9942 -0.242716 4.98039 -91.0225 3.41749 -88.3334 5.34809 -7.22636e-06 -6.2814e-07 -52.2978 26.0847 -16.5812 24.3286 1.87007e-05 4.90208e-06 5.05671 -0.160553 -91.8156 22.2916 -9.88446e-07 4.63217e-06 9.82384 5.5878 -10.6392 12.9945 -0.242716 -4.98039 86.4517 12.15 -88.5842 -5.34813 -1.25947e-06 -3.79883e-06 -51.8429 12.6881 16.8229 -24.3289 0.000322201 -8.65921e-06 11.1371 -0.959676 -94.8635 -22.2915 -0.000108084 -4.47941e-06 3.49221 5.63605 -13.8055 -2.19248 -6.46944 -1.22534e-07 -173.131 1.18443 -1.62043 39.0811 -6.73843e-06 -1.23785e-05 0.0120809 0.0173977 30.7211 40.9854 -6.48686e-06 -1.26872e-05 0.727774 5.18284 -75.7699 11.7543 -2.30145e-07 3.05095e-06 0.252809 -0.454637 -24.399 -2.19251 6.46944 -1.45247e-06 -175.239 9.91103 142.025 -39.0811 -0.00228153 -0.0401928 0.073023 -0.126681 28.4334 -40.9854 7.72618e-06 5.99936e-06 2.29293 -5.26736 -50.162 -11.7543 -5.6619e-06 -5.58687e-06 -0.0763005 0.0835949 -15.7413 
0 0 0 0 0 -0 -1.90486 87.8933 -62.2919 87.6567 4.88563 -5.24894 15.7357 5.1072e-06 -5.51765e-07 57.4337 85.838 -54.6741 8.98455 -0.406207 -4.3199e-07 -0.631431 -4.68173 5.49334 16.3773 -1.3905e-06 -6.99897e-07 6.41281 -3.72301 2.45415 6.45672 -1.25837e-06 -1.02172e-07 6.22236 -0.0658033 1.08913 12.9942 -0.242716 4.98039 -91.334 4.34152 -87.9011 5.34809 -7.22636e-06 -6.2814e-07 -56.0047 25.7692 -8.84931 24.3286 1.87007e-05 4.90208e-06 5.26135 -0.0568537 -90.6157 22.2916 -9.88446e-07 4.63217e-06 9.57015 5.59784 -11.2131 12.9945 -0.242716 -4.98039 86.2449 12.931 -88.6537 -5.34813 -1.25947e-06 -3.79883e-06 -52.2561 15.3797 13.2017 -24.3289 0.000322201 -8.65921e-06 12.5061 -1.01423 -94.5642 -22.2915 -0.000108084 -4.47941e-06 3.78857 5.63537 -13.7517 -2.19248 -6.46944 -1.22534e-07 -172.495 1.22774 -2.15586 39.0811 -6.73843e-06 -1.23785e-05 0.0383414 -0.0118822 38.42 40.9854 -6.48686e-06 -1.26872e-05 -0.699714 5.56033 -70.0751 11.7543 -2.30145e-07 3.05095e-06 0.468611 -1.03049 -33.6468 -2.19251 6.46944 -1.45247e-06 -175.803 8.03822 143.012 -39.0811 -0.00228153 -0.0401928 0.0660726 -0.0883616 35.2803 -40.9854 7.72618e-06 5.99936e-06 1.50025 -5.71753 -54.363 -11.7543 -5.6619e-06 -5.58687e-06 -0.198184 0.148555 -16.2786 
0 0 0 0 0 -0 -2.69216 88.0205 -57.8515 87.7366 5.1594 -3.30257 15.7357 5.1072e-06 -5.51765e-07 64.3432 85.2817 -61.4905 8.98455 -0.406207 -4.3199e-07 0.85578 -4.25627 5.73474 16.3773 -1.3905e-06 -6.99897e-07 6.20008 -3.27519 3.54752 6.45672 -1.25837e-06 -1.02172e-07 5.36543 -0.124118 1.89856 12.9942 -0.242716 4.98039 -91.243 3.90115 -87.3126 5.34809 -7.22636e-06 -6.2814e-07 -60.2845 23.4254 -1.4626 24.3286 1.87007e-05 4.90208e-06 4.85954 0.0719685 -89.1552 22.2916 -9.88446e-07 4.63217e-06 9.33527 5.60192 -11.4571 12.9945 -0.242716 -4.98039 86.4355 13.0335 -89.559 -5.34813 -1.25947e-06 -3.79883e-06 -52.6631 16.9709 8.0206 -24.3289 0.000322201 -8.65921e-06 14.4328 -1.21238 -94.7005 -22.2915 -0.000108084 -4.47941e-06 3.8052 5.63128 -13.4324 -2.19248 -6.46944 -1.22534e-07 -171.44 0.851633 -5.26157 39.0811 -6.73843e-06 -1.23785e-05 0.11545 -0.0755563 48.4588 40.9854 -6.48686e-06 -1.26872e-05 -2.21787 7.1423 -58.088 11.7543 -2.30145e-07 3.05095e-06 0.572962 -1.51264 -41.0623 -2.19251 6.46944 -1.45247e-06 -175.666 8.86353 146.461 -39.0811 -0.00228153 -0.0401928 0.0371819 -0.0352187 38.8699 -40.9854 7.72618e-06 5.99936e-06 1.49654 -5.36804 -59.4788 -11.7543 -5.6619e-06 -5.58687e-06 -0.183912 0.127837 -16.5696 
0 0 0 0 0 -0 -3.30685 88.6722 -53.8919 88.0365 5.85938 -1.80857 15.7357 5.1072e-06 -5.51765e-07 72.0396 85.185 -69.2696 8.98455 -0.406207 -4.3199e-07 1.47855 -3.11985 5.57651 16.3773 -1.3905e-06 -6.99897e-07 6.28739 -4.09398 4.59787 6.45672 -1.25837e-06 -1.02172e-07 5.71654 -1.35317 2.7568 12.9942 -0.242716 4.98039 -91.1949 3.72823 -87.2149 5.34809 -7.22636e-06 -6.2814e-07 -61.9333 22.2141 4.52327 24.3286 1.87007e-05 4.90208e-06 5.35928 0.137935 -88.5303 22.2916 -9.88446e-07 4.63217e-06 8.98191 5.60365 -11.5606 12.9945 -0.242716 -4.98039 86.5217 12.8777 -89.7451 -5.34813 -1.25947e-06 -3.79883e-06 -52.7842 17.5987 4.5185 -24.3289 0.000322201 -8.65921e-06 13.7599 -1.49031 -96.064 -22.2915 -0.000108084 -4.47941e-06 4.20062 5.62571 -13.0201 -2.19248 -6.46944 -1.22534e-07 -171.164 2.25511 -10.7102 39.0811 -6.73843e-06 -1.23785e-05 0.219623 -0.114542 59.9371 40.9854 -6.48686e-06 -1.26872e-05 -4.63747 6.23773 -48.7049 11.7543 -2.30145e-07 3.05095e-06 0.292617 -0.542218 -25.8444 -2.19251 6.46944 -1.45247e-06 -175.957 9.72945 151.169 -39.0811 -0.00228153 -0.0401928 0.0222509 -0.0219441 38.7511 -40.9854 7.72618e-06 5.99936e-06 1.43422 -5.37994 -62.6292 -11.7543 -5.6619e-06 -5.58687e-06 -0.177991 0.122427 -16.57 
0 0 0 0 0 -0 -3.55305 89.4891 -50.3717 88.6486 5.57973 -0.750837 15.7357 5.1072e-06 -5.51765e-07 82.1218 85.0887 -79.6614 8.98455 -0.406207 -4.3199e-07 2.00088 -1.46914 4.94203 16.3773 -1.3905e-06 -6.99897e-07 6.44196 -4.71997 5.06597 6.45672 -1.25837e-06 -1.02172e-07 5.59188 -2.73689 3.18037 12.9942 -0.242716 4.98039 -91.1399 3.44946 -86.7004 5.34809 -7.22636e-06 -6.2814e-07 -61.6979 21.8551 9.05113 24.3286 1.87007e-05 4.90208e-06 4.25673 0.09183 -88.7676 22.2916 -9.88446e-07 4.63217e-06 8.79927 5.60255 -11.4953 12.9945 -0.242716 -4.98039 86.7202 12.3348 -89.9842 -5.34813 -1.25947e-06 -3.79883e-06 -52.5529 17.7774 0.932799 -24.3289 0.000322201 -8.65921e-06 12.9918 -1.71867 -97.4077 -22.2915 -0.000108084 -4.47941e-06 4.43456 5.61891 -12.5455 -2.19248 -6.46944 -1.22534e-07 -172.178 2.43536 -15.8363 39.0811 -6.73843e-06 -1.23785e-05 0.247911 -0.086806 69.3313 40.9854 -6.48686e-06 -1.26872e-05 -3.20066 3.76156 -47.4522 11.7543 -2.30145e-07 3.05095e-06 0.151098 -0.253776 -21.0162 -2.19251 6.46944 -1.45247e-06 -176.704 10.581 155.954 -39.0811 -0.00228153 -0.0401928 0.0265595 -0.019394 36.9502 -40.9854 7.72618e-06 5.99936e-06 1.52463 -4.48721 -64.5076 -11.7543 -5.6619e-06 -5.58687e-06 -0.164543 0.113341 -16.5702 
